# xmcd
#
# Track frame offsets:
#	150
#	17215
#	35575
#	50955
#	65044
#	84582
#	99036
#	113295
#	135374
#	156815
#	173949
#
# Disc length: 2540 seconds
# Revision: 0
# Processed by: cddbd v1.5.2PL0 Copyright (c) Steve Scherf et al.
# Submitted via: dBpowerAMP V12.0
#
DISCID=8809ea0b
DTITLE=Kate Lush - Kate Lush and The Wild Captain Radio Tour
DYEAR=2013
DGENRE=Blues
TTITLE0=Sweetest Thing
TTITLE1=Set Me Free
TTITLE2=I'm Supposed To Know
TTITLE3=Tired Of My Tears
TTITLE4=Waiting In Vain
TTITLE5=Loving You Is Sweeter Than Ever
TTITLE6=Never See Me Cry
TTITLE7=Peace
TTITLE8=True Fire
TTITLE9=Groove Me
TTITLE10=Blue Valentine
EXTD=
EXTT0=
EXTT1=
EXTT2=
EXTT3=
EXTT4=
EXTT5=
EXTT6=
EXTT7=
EXTT8=
EXTT9=
EXTT10=
PLAYORDER=
